<svg width="22" height="17" viewBox="0 0 22 17" fill="none" xmlns="http://www.w3.org/2000/svg">
<path d="M20.625 6.9375H19.6969L17.3095 1.56641C17.2015 1.3234 17.0253 1.11694 16.8023 0.972032C16.5793 0.827129 16.3191 0.750003 16.0531 0.75H5.94687C5.68093 0.750003 5.4207 0.827129 5.1977 0.972032C4.9747 1.11694 4.79851 1.3234 4.69047 1.56641L2.30312 6.9375H1.375C1.19266 6.9375 1.0178 7.00993 0.888864 7.13886C0.759933 7.2678 0.6875 7.44266 0.6875 7.625C0.6875 7.80734 0.759933 7.9822 0.888864 8.11114C1.0178 8.24007 1.19266 8.3125 1.375 8.3125H2.0625V15.1875C2.0625 15.5522 2.20737 15.9019 2.46523 16.1598C2.72309 16.4176 3.07283 16.5625 3.4375 16.5625H5.5C5.86467 16.5625 6.21441 16.4176 6.47227 16.1598C6.73013 15.9019 6.875 15.5522 6.875 15.1875V13.8125H15.125V15.1875C15.125 15.5522 15.2699 15.9019 15.5277 16.1598C15.7856 16.4176 16.1353 16.5625 16.5 16.5625H18.5625C18.9272 16.5625 19.2769 16.4176 19.5348 16.1598C19.7926 15.9019 19.9375 15.5522 19.9375 15.1875V8.3125H20.625C20.8073 8.3125 20.9822 8.24007 21.1111 8.11114C21.2401 7.9822 21.3125 7.80734 21.3125 7.625C21.3125 7.44266 21.2401 7.2678 21.1111 7.13886C20.9822 7.00993 20.8073 6.9375 20.625 6.9375ZM5.94687 2.125H16.0531L18.1921 6.9375H3.80789L5.94687 2.125ZM5.5 15.1875H3.4375V13.8125H5.5V15.1875ZM16.5 15.1875V13.8125H18.5625V15.1875H16.5ZM18.5625 12.4375H3.4375V8.3125H18.5625V12.4375ZM4.8125 10.375C4.8125 10.1927 4.88493 10.0178 5.01386 9.88886C5.1428 9.75993 5.31766 9.6875 5.5 9.6875H6.875C7.05734 9.6875 7.2322 9.75993 7.36114 9.88886C7.49007 10.0178 7.5625 10.1927 7.5625 10.375C7.5625 10.5573 7.49007 10.7322 7.36114 10.8611C7.2322 10.9901 7.05734 11.0625 6.875 11.0625H5.5C5.31766 11.0625 5.1428 10.9901 5.01386 10.8611C4.88493 10.7322 4.8125 10.5573 4.8125 10.375ZM14.4375 10.375C14.4375 10.1927 14.5099 10.0178 14.6389 9.88886C14.7678 9.75993 14.9427 9.6875 15.125 9.6875H16.5C16.6823 9.6875 16.8572 9.75993 16.9861 9.88886C17.1151 10.0178 17.1875 10.1927 17.1875 10.375C17.1875 10.5573 17.1151 10.7322 16.9861 10.8611C16.8572 10.9901 16.6823 11.0625 16.5 11.0625H15.125C14.9427 11.0625 14.7678 10.9901 14.6389 10.8611C14.5099 10.7322 14.4375 10.5573 14.4375 10.375Z" fill="#2E2E2E"/>
</svg>
