<svg width="16" height="20" viewBox="0 0 16 20" fill="none" xmlns="http://www.w3.org/2000/svg">
<path d="M11.9531 4.10357C10.8916 2.87761 9.69688 1.77368 8.39102 0.812161C8.27542 0.731183 8.1377 0.687744 7.99656 0.687744C7.85542 0.687744 7.71771 0.731183 7.60211 0.812161C6.29865 1.77408 5.10624 2.878 4.04688 4.10357C1.68445 6.81662 0.4375 9.67662 0.4375 12.3751C0.4375 14.3808 1.23426 16.3043 2.65251 17.7226C4.07075 19.1408 5.9943 19.9376 8 19.9376C10.0057 19.9376 11.9293 19.1408 13.3475 17.7226C14.7657 16.3043 15.5625 14.3808 15.5625 12.3751C15.5625 9.67662 14.3155 6.81662 11.9531 4.10357ZM8 18.5626C6.35953 18.5607 4.78677 17.9083 3.62679 16.7483C2.4668 15.5883 1.81432 14.0155 1.8125 12.3751C1.8125 7.45685 6.57945 3.35161 8 2.23443C9.42055 3.35161 14.1875 7.45513 14.1875 12.3751C14.1857 14.0155 13.5332 15.5883 12.3732 16.7483C11.2132 17.9083 9.64047 18.5607 8 18.5626ZM12.803 13.1777C12.6248 14.1735 12.1457 15.0907 11.4303 15.8059C10.7149 16.5212 9.7976 17 8.8018 17.1781C8.76399 17.1842 8.72578 17.1873 8.6875 17.1876C8.51505 17.1875 8.34891 17.1227 8.22203 17.0059C8.09516 16.8891 8.01682 16.7288 8.00254 16.557C7.98826 16.3851 8.03909 16.2142 8.14496 16.078C8.25082 15.9419 8.40398 15.8505 8.57406 15.822C9.99805 15.5822 11.2063 14.374 11.4478 12.9474C11.4784 12.7676 11.5791 12.6072 11.7278 12.5017C11.8766 12.3961 12.0612 12.354 12.241 12.3845C12.4208 12.415 12.5812 12.5158 12.6867 12.6645C12.7923 12.8133 12.8344 12.9979 12.8039 13.1777H12.803Z" fill="#2E2E2E"/>
</svg>
