<svg width="14" height="14" viewBox="0 0 14 14" fill="none" xmlns="http://www.w3.org/2000/svg">
<path d="M13.6738 12.701C13.7377 12.7649 13.7883 12.8407 13.8229 12.9242C13.8575 13.0076 13.8753 13.0971 13.8753 13.1874C13.8753 13.2777 13.8575 13.3672 13.8229 13.4506C13.7883 13.5341 13.7377 13.6099 13.6738 13.6738C13.6099 13.7377 13.5341 13.7883 13.4506 13.8229C13.3672 13.8575 13.2777 13.8753 13.1874 13.8753C13.0971 13.8753 13.0076 13.8575 12.9242 13.8229C12.8407 13.7883 12.7649 13.7377 12.701 13.6738L6.99989 7.97185L1.2988 13.6738C1.1698 13.8028 0.994832 13.8753 0.812394 13.8753C0.629956 13.8753 0.454991 13.8028 0.325988 13.6738C0.196985 13.5448 0.124512 13.3698 0.124512 13.1874C0.124512 13.005 0.196985 12.83 0.325988 12.701L6.02794 6.99989L0.325988 1.2988C0.196985 1.1698 0.124512 0.994832 0.124512 0.812394C0.124512 0.629956 0.196985 0.454991 0.325988 0.325988C0.454991 0.196985 0.629956 0.124512 0.812394 0.124512C0.994832 0.124512 1.1698 0.196985 1.2988 0.325988L6.99989 6.02794L12.701 0.325988C12.83 0.196985 13.005 0.124512 13.1874 0.124512C13.3698 0.124512 13.5448 0.196985 13.6738 0.325988C13.8028 0.454991 13.8753 0.629956 13.8753 0.812394C13.8753 0.994832 13.8028 1.1698 13.6738 1.2988L7.97185 6.99989L13.6738 12.701Z" fill="#2E2E2E"/>
</svg>
