<svg width="20" height="19" viewBox="0 0 20 19" fill="none" xmlns="http://www.w3.org/2000/svg">
<path d="M4.875 3.8125V1.0625C4.875 0.880164 4.94743 0.705295 5.07636 0.576364C5.2053 0.447433 5.38016 0.375 5.5625 0.375C5.74484 0.375 5.9197 0.447433 6.04864 0.576364C6.17757 0.705295 6.25 0.880164 6.25 1.0625V3.8125C6.25 3.99484 6.17757 4.1697 6.04864 4.29864C5.9197 4.42757 5.74484 4.5 5.5625 4.5C5.38016 4.5 5.2053 4.42757 5.07636 4.29864C4.94743 4.1697 4.875 3.99484 4.875 3.8125ZM8.3125 4.5C8.49484 4.5 8.6697 4.42757 8.79864 4.29864C8.92757 4.1697 9 3.99484 9 3.8125V1.0625C9 0.880164 8.92757 0.705295 8.79864 0.576364C8.6697 0.447433 8.49484 0.375 8.3125 0.375C8.13016 0.375 7.9553 0.447433 7.82636 0.576364C7.69743 0.705295 7.625 0.880164 7.625 1.0625V3.8125C7.625 3.99484 7.69743 4.1697 7.82636 4.29864C7.9553 4.42757 8.13016 4.5 8.3125 4.5ZM11.0625 4.5C11.2448 4.5 11.4197 4.42757 11.5486 4.29864C11.6776 4.1697 11.75 3.99484 11.75 3.8125V1.0625C11.75 0.880164 11.6776 0.705295 11.5486 0.576364C11.4197 0.447433 11.2448 0.375 11.0625 0.375C10.8802 0.375 10.7053 0.447433 10.5764 0.576364C10.4474 0.705295 10.375 0.880164 10.375 1.0625V3.8125C10.375 3.99484 10.4474 4.1697 10.5764 4.29864C10.7053 4.42757 10.8802 4.5 11.0625 4.5ZM19.3125 9.3125V10C19.3122 10.8745 18.9787 11.7159 18.3798 12.3531C17.781 12.9903 16.9617 13.3753 16.089 13.4298C15.62 14.7563 14.8216 15.9418 13.7687 16.875H15.875C16.0573 16.875 16.2322 16.9474 16.3611 17.0764C16.4901 17.2053 16.5625 17.3802 16.5625 17.5625C16.5625 17.7448 16.4901 17.9197 16.3611 18.0486C16.2322 18.1776 16.0573 18.25 15.875 18.25H0.75C0.567664 18.25 0.392795 18.1776 0.263864 18.0486C0.134933 17.9197 0.0625 17.7448 0.0625 17.5625C0.0625 17.3802 0.134933 17.2053 0.263864 17.0764C0.392795 16.9474 0.567664 16.875 0.75 16.875H2.85891C1.98174 16.1 1.27894 15.1478 0.796903 14.0813C0.314864 13.0147 0.0645546 11.858 0.0625 10.6875V6.5625C0.0625 6.38016 0.134933 6.2053 0.263864 6.07636C0.392795 5.94743 0.567664 5.875 0.75 5.875H15.875C16.7867 5.875 17.661 6.23716 18.3057 6.88182C18.9503 7.52648 19.3125 8.40082 19.3125 9.3125ZM15.1875 7.25H1.4375V10.6875C1.44015 11.9783 1.80495 13.2426 2.49041 14.3364C3.17587 15.4302 4.15449 16.3097 5.315 16.875H11.31C12.4705 16.3097 13.4491 15.4302 14.1346 14.3364C14.8201 13.2426 15.1848 11.9783 15.1875 10.6875V7.25ZM17.9375 9.3125C17.9374 8.8861 17.8051 8.47021 17.5588 8.12209C17.3126 7.77397 16.9645 7.51073 16.5625 7.36859V10.6875C16.562 11.1192 16.5275 11.5502 16.4594 11.9766C16.8859 11.8505 17.2603 11.59 17.5267 11.2338C17.7931 10.8776 17.9372 10.4448 17.9375 10V9.3125Z" fill="#2E2E2E"/>
</svg>
