<svg width="14" height="19" viewBox="0 0 14 19" fill="none" xmlns="http://www.w3.org/2000/svg">
<path d="M13.7034 0.293673C13.6387 0.220808 13.5593 0.162517 13.4704 0.122663C13.3815 0.0828093 13.2852 0.0623023 13.1877 0.0625014H0.812736C0.715177 0.0624679 0.618728 0.0831983 0.529798 0.123315C0.440868 0.163432 0.361495 0.222016 0.296953 0.295174C0.232411 0.368333 0.184178 0.45439 0.155461 0.547627C0.126743 0.640864 0.118197 0.739145 0.130392 0.835939L2.11985 17.4219C2.16174 17.7544 2.32362 18.0601 2.57508 18.2817C2.82654 18.5032 3.15026 18.6253 3.48539 18.625H10.5151C10.8514 18.6251 11.1761 18.5019 11.4277 18.2788C11.6793 18.0557 11.8405 17.7481 11.8806 17.4141L13.8701 0.835939C13.8825 0.738894 13.874 0.640321 13.8453 0.546808C13.8165 0.453294 13.7681 0.366994 13.7034 0.293673ZM12.4143 1.4375L12.1651 3.5H1.83539L1.58617 1.4375H12.4143ZM10.5151 17.25H3.48539L2.00039 4.875H12.0001L10.5151 17.25Z" fill="#2E2E2E"/>
</svg>
