<svg width="17" height="18" viewBox="0 0 17 18" fill="none" xmlns="http://www.w3.org/2000/svg">
<path d="M4.18751 5.56255V1.43755C4.18751 1.25521 4.25994 1.08034 4.38887 0.95141C4.5178 0.822479 4.69267 0.750046 4.87501 0.750046C5.05734 0.750046 5.23221 0.822479 5.36114 0.95141C5.49007 1.08034 5.56251 1.25521 5.56251 1.43755V5.56255C5.56251 5.74488 5.49007 5.91975 5.36114 6.04868C5.23221 6.17761 5.05734 6.25005 4.87501 6.25005C4.69267 6.25005 4.5178 6.17761 4.38887 6.04868C4.25994 5.91975 4.18751 5.74488 4.18751 5.56255ZM16.5625 1.43755V17.25C16.5625 17.4324 16.4901 17.6073 16.3611 17.7362C16.2322 17.8651 16.0573 17.9375 15.875 17.9375C15.6927 17.9375 15.5178 17.8651 15.3889 17.7362C15.2599 17.6073 15.1875 17.4324 15.1875 17.25V13.125H11.0625C10.8802 13.125 10.7053 13.0526 10.5764 12.9237C10.4474 12.7948 10.375 12.6199 10.375 12.4375C10.4069 10.7907 10.6149 9.15201 10.9955 7.54942C11.8359 4.06981 13.4292 1.73747 15.6043 0.805906C15.7088 0.761124 15.8229 0.742977 15.9361 0.753092C16.0494 0.763206 16.1584 0.801266 16.2534 0.863861C16.3483 0.926455 16.4263 1.01163 16.4802 1.11175C16.5342 1.21187 16.5625 1.32381 16.5625 1.43755ZM15.1875 2.63208C12.4229 4.74356 11.8815 9.88692 11.7758 11.75H15.1875V2.63208ZM8.30305 1.32497C8.28959 1.23469 8.25828 1.14801 8.21096 1.06996C8.16364 0.991911 8.10126 0.924067 8.02744 0.870383C7.95363 0.8167 7.86986 0.778252 7.78103 0.757282C7.6922 0.736313 7.60008 0.733241 7.51005 0.748246C7.42002 0.763251 7.33388 0.796033 7.25665 0.844679C7.17942 0.893325 7.11266 0.956862 7.06024 1.03158C7.00783 1.1063 6.97082 1.19072 6.95137 1.27989C6.93192 1.36907 6.93042 1.46122 6.94696 1.55098L7.62501 5.61669C7.62501 6.34603 7.33528 7.04551 6.81955 7.56123C6.30383 8.07696 5.60435 8.36669 4.87501 8.36669C4.14566 8.36669 3.44619 8.07696 2.93046 7.56123C2.41474 7.04551 2.12501 6.34603 2.12501 5.61669L2.80219 1.55098C2.81873 1.46122 2.81724 1.36907 2.79779 1.27989C2.77834 1.19072 2.74133 1.1063 2.68891 1.03158C2.6365 0.956862 2.56973 0.893325 2.4925 0.844679C2.41527 0.796033 2.32913 0.763251 2.2391 0.748246C2.14907 0.733241 2.05696 0.736313 1.96812 0.757282C1.87929 0.778252 1.79553 0.8167 1.72171 0.870383C1.6479 0.924067 1.58551 0.991911 1.53819 1.06996C1.49087 1.14801 1.45957 1.23469 1.4461 1.32497L0.7586 5.44997C0.752718 5.4872 0.749844 5.52485 0.750007 5.56255C0.75138 6.53691 1.09712 7.47944 1.72614 8.22357C2.35516 8.9677 3.22697 9.46553 4.18751 9.62911V17.25C4.18751 17.4324 4.25994 17.6073 4.38887 17.7362C4.5178 17.8651 4.69267 17.9375 4.87501 17.9375C5.05734 17.9375 5.23221 17.8651 5.36114 17.7362C5.49007 17.6073 5.56251 17.4324 5.56251 17.25V9.62911C6.52305 9.46553 7.39485 8.9677 8.02387 8.22357C8.65289 7.47944 8.99863 6.53691 9.00001 5.56255C8.99988 5.52483 8.99672 5.48718 8.99055 5.44997L8.30305 1.32497Z" fill="#2E2E2E"/>
</svg>
