<svg width="20" height="18" viewBox="0 0 20 18" fill="none" xmlns="http://www.w3.org/2000/svg">
<path d="M18.7109 3.98641L17.0489 2.32609C16.9199 2.19709 16.7449 2.12462 16.5625 2.12462C16.3801 2.12462 16.2051 2.19709 16.0761 2.32609C15.9471 2.4551 15.8746 2.63006 15.8746 2.8125C15.8746 2.99494 15.9471 3.1699 16.0761 3.29891L17.7364 4.96094C17.8647 5.08935 17.937 5.26327 17.9375 5.44477V12.4375C17.9375 12.6198 17.8651 12.7947 17.7361 12.9236C17.6072 13.0526 17.4323 13.125 17.25 13.125C17.0677 13.125 16.8928 13.0526 16.7639 12.9236C16.6349 12.7947 16.5625 12.6198 16.5625 12.4375V9C16.5625 8.45299 16.3452 7.92839 15.9584 7.54159C15.5716 7.1548 15.047 6.9375 14.5 6.9375H13.125V2.8125C13.125 2.26549 12.9077 1.74089 12.5209 1.35409C12.1341 0.967299 11.6095 0.75 11.0625 0.75H4.1875C3.64049 0.75 3.11589 0.967299 2.72909 1.35409C2.3423 1.74089 2.125 2.26549 2.125 2.8125V15.875H0.75C0.567664 15.875 0.392795 15.9474 0.263864 16.0764C0.134933 16.2053 0.0625 16.3802 0.0625 16.5625C0.0625 16.7448 0.134933 16.9197 0.263864 17.0486C0.392795 17.1776 0.567664 17.25 0.75 17.25H14.5C14.6823 17.25 14.8572 17.1776 14.9861 17.0486C15.1151 16.9197 15.1875 16.7448 15.1875 16.5625C15.1875 16.3802 15.1151 16.2053 14.9861 16.0764C14.8572 15.9474 14.6823 15.875 14.5 15.875H13.125V8.3125H14.5C14.6823 8.3125 14.8572 8.38493 14.9861 8.51386C15.1151 8.6428 15.1875 8.81766 15.1875 9V12.4375C15.1875 12.9845 15.4048 13.5091 15.7916 13.8959C16.1784 14.2827 16.703 14.5 17.25 14.5C17.797 14.5 18.3216 14.2827 18.7084 13.8959C19.0952 13.5091 19.3125 12.9845 19.3125 12.4375V5.44477C19.3135 5.174 19.2609 4.9057 19.1577 4.65539C19.0544 4.40508 18.9026 4.17771 18.7109 3.98641ZM3.5 15.875V2.8125C3.5 2.63016 3.57243 2.4553 3.70137 2.32636C3.8303 2.19743 4.00516 2.125 4.1875 2.125H11.0625C11.2448 2.125 11.4197 2.19743 11.5486 2.32636C11.6776 2.4553 11.75 2.63016 11.75 2.8125V15.875H3.5ZM10.375 7.625C10.375 7.80734 10.3026 7.9822 10.1736 8.11114C10.0447 8.24007 9.86984 8.3125 9.6875 8.3125H5.5625C5.38017 8.3125 5.2053 8.24007 5.07637 8.11114C4.94743 7.9822 4.875 7.80734 4.875 7.625C4.875 7.44266 4.94743 7.2678 5.07637 7.13886C5.2053 7.00993 5.38017 6.9375 5.5625 6.9375H9.6875C9.86984 6.9375 10.0447 7.00993 10.1736 7.13886C10.3026 7.2678 10.375 7.44266 10.375 7.625Z" fill="#2E2E2E"/>
</svg>
