<svg width="14" height="4" viewBox="0 0 14 4" fill="none" xmlns="http://www.w3.org/2000/svg">
<path d="M8.03125 2C8.03125 2.20396 7.97077 2.40334 7.85745 2.57293C7.74414 2.74252 7.58308 2.8747 7.39464 2.95275C7.20621 3.0308 6.99886 3.05123 6.79881 3.01144C6.59877 2.97164 6.41502 2.87343 6.2708 2.7292C6.12657 2.58498 6.02836 2.40123 5.98857 2.20119C5.94877 2.00114 5.9692 1.79379 6.04725 1.60536C6.1253 1.41692 6.25748 1.25586 6.42707 1.14255C6.59666 1.02923 6.79604 0.96875 7 0.96875C7.27351 0.96875 7.53581 1.0774 7.7292 1.2708C7.9226 1.46419 8.03125 1.7265 8.03125 2ZM12.8438 0.96875C12.6398 0.96875 12.4404 1.02923 12.2708 1.14255C12.1012 1.25586 11.9691 1.41692 11.891 1.60536C11.8129 1.79379 11.7925 2.00114 11.8323 2.20119C11.8721 2.40123 11.9703 2.58498 12.1145 2.7292C12.2588 2.87343 12.4425 2.97164 12.6426 3.01144C12.8426 3.05123 13.05 3.0308 13.2384 2.95275C13.4268 2.8747 13.5879 2.74252 13.7012 2.57293C13.8145 2.40334 13.875 2.20396 13.875 2C13.875 1.7265 13.7663 1.46419 13.573 1.2708C13.3796 1.0774 13.1173 0.96875 12.8438 0.96875ZM1.15625 0.96875C0.952289 0.96875 0.752907 1.02923 0.583319 1.14255C0.413731 1.25586 0.281553 1.41692 0.2035 1.60536C0.125447 1.79379 0.105025 2.00114 0.144816 2.20119C0.184607 2.40123 0.282824 2.58498 0.427047 2.7292C0.571269 2.87343 0.755021 2.97164 0.955064 3.01144C1.15511 3.05123 1.36246 3.0308 1.55089 2.95275C1.73933 2.8747 1.90039 2.74252 2.0137 2.57293C2.12702 2.40334 2.1875 2.20396 2.1875 2C2.1875 1.7265 2.07885 1.46419 1.88545 1.2708C1.69206 1.0774 1.42976 0.96875 1.15625 0.96875Z" fill="#2E2E2E"/>
</svg>
