<svg width="27" height="22" viewBox="0 0 27 22" fill="none" xmlns="http://www.w3.org/2000/svg">
<path d="M25.9074 13.4131C25.5725 13.1507 25.1828 12.9704 24.7684 12.8864C24.3541 12.8023 23.9263 12.8167 23.5183 12.9284L18.8122 14.0307C18.9217 13.5596 18.925 13.0692 18.8221 12.5965C18.7191 12.1239 18.5124 11.681 18.2175 11.3013C17.9227 10.9215 17.5472 10.6147 17.1194 10.4038C16.6916 10.1928 16.2224 10.0833 15.7471 10.0833H10.1164C9.64353 10.0821 9.17512 10.1764 8.73822 10.3607C8.30133 10.5449 7.90461 10.8156 7.57099 11.157L5.0267 13.75H1.79967C1.32237 13.75 0.864615 13.9432 0.527111 14.287C0.189608 14.6308 0 15.0971 0 15.5833L0 20.1667C0 20.6529 0.189608 21.1192 0.527111 21.463C0.864615 21.8068 1.32237 22 1.79967 22H13.4975C13.5711 22 13.6444 21.9908 13.7157 21.9725L20.9144 20.1392C20.9603 20.128 21.0051 20.1127 21.0483 20.0933L25.4203 18.1981L25.4698 18.1752C25.89 17.9613 26.2498 17.642 26.5154 17.2473C26.7809 16.8526 26.9435 16.3955 26.9877 15.9191C27.0319 15.4427 26.9564 14.9627 26.7682 14.5243C26.5799 14.0859 26.2853 13.7035 25.9119 13.4131H25.9074ZM1.79967 15.5833H4.49918V20.1667H1.79967V15.5833ZM24.6814 16.5241L20.4071 18.378L13.385 20.1667H6.29885V15.0459L8.84425 12.4541C9.01076 12.2831 9.20897 12.1475 9.42737 12.0553C9.64576 11.963 9.87997 11.9159 10.1164 11.9167H15.7471C16.1051 11.9167 16.4484 12.0615 16.7015 12.3194C16.9547 12.5773 17.0969 12.927 17.0969 13.2917C17.0969 13.6563 16.9547 14.0061 16.7015 14.2639C16.4484 14.5218 16.1051 14.6667 15.7471 14.6667H12.5977C12.359 14.6667 12.1302 14.7632 11.9614 14.9352C11.7927 15.1071 11.6979 15.3402 11.6979 15.5833C11.6979 15.8264 11.7927 16.0596 11.9614 16.2315C12.1302 16.4034 12.359 16.5 12.5977 16.5H16.197C16.2648 16.4998 16.3323 16.4921 16.3984 16.4771L23.9345 14.7114L23.9694 14.7022C24.1994 14.6371 24.445 14.661 24.6587 14.7693C24.8725 14.8776 25.0395 15.0626 25.1274 15.2887C25.2154 15.5148 25.2181 15.7661 25.1351 15.9941C25.0522 16.2222 24.8893 16.411 24.678 16.5241H24.6814ZM18.4466 8.25C18.6689 8.25026 18.8909 8.23186 19.1102 8.195C19.357 8.94156 19.8084 9.60055 20.4111 10.094C21.0138 10.5875 21.7426 10.8949 22.5114 10.9798C23.2802 11.0647 24.0567 10.9236 24.7493 10.5732C25.4418 10.2227 26.0214 9.67759 26.4194 9.00224C26.8175 8.32689 27.0174 7.54955 26.9955 6.76214C26.9736 5.97472 26.7309 5.21014 26.296 4.55881C25.861 3.90748 25.2522 3.39662 24.5413 3.08664C23.8304 2.77666 23.0472 2.68052 22.2844 2.80958C22.0468 2.09028 21.6191 1.45169 21.0482 0.964079C20.4773 0.47647 19.7855 0.158747 19.0488 0.045877C18.3121 -0.0669931 17.5591 0.0293645 16.8727 0.324346C16.1863 0.619327 15.593 1.1015 15.1583 1.71779C14.7235 2.33409 14.4641 3.06062 14.4086 3.81743C14.353 4.57424 14.5035 5.332 14.8435 6.0073C15.1834 6.6826 15.6996 7.24928 16.3354 7.64497C16.9711 8.04065 17.7016 8.25001 18.4466 8.25ZM25.1954 6.875C25.1954 7.32825 25.0634 7.77132 24.8163 8.14818C24.5691 8.52505 24.2177 8.81877 23.8067 8.99222C23.3956 9.16568 22.9433 9.21106 22.5069 9.12263C22.0705 9.03421 21.6697 8.81595 21.3551 8.49545C21.0405 8.17496 20.8262 7.76662 20.7394 7.32208C20.6526 6.87754 20.6972 6.41677 20.8674 5.99802C21.0377 5.57927 21.326 5.22136 21.696 4.96955C22.0659 4.71774 22.5009 4.58333 22.9458 4.58333C23.5424 4.58333 24.1146 4.82478 24.5365 5.25455C24.9584 5.68432 25.1954 6.26721 25.1954 6.875ZM18.4466 1.83333C18.9374 1.83359 19.4146 1.99731 19.8055 2.29955C20.1964 2.60179 20.4796 3.02596 20.6118 3.5074C20.151 3.83774 19.7629 4.26243 19.4724 4.75431C19.1818 5.24619 18.9953 5.79443 18.9247 6.36396C18.7676 6.39852 18.6073 6.41618 18.4466 6.41667C17.85 6.41667 17.2778 6.17522 16.8559 5.74545C16.434 5.31568 16.197 4.73279 16.197 4.125C16.197 3.51721 16.434 2.93432 16.8559 2.50455C17.2778 2.07478 17.85 1.83333 18.4466 1.83333Z" fill="#2E2E2E"/>
</svg>
