<svg width="19" height="18" viewBox="0 0 19 18" fill="none" xmlns="http://www.w3.org/2000/svg">
<path d="M12.7784 12.0516C12.9288 12.196 13.0311 12.3798 13.0724 12.5797C13.1137 12.7797 13.0921 12.9868 13.0104 13.175C12.9287 13.3633 12.7905 13.5241 12.6133 13.6373C12.4361 13.7504 12.2278 13.8108 12.0147 13.8108C11.8017 13.8108 11.5934 13.7504 11.4161 13.6373C11.2389 13.5241 11.1007 13.3633 11.019 13.175C10.9373 12.9868 10.9158 12.7797 10.957 12.5797C10.9983 12.3798 11.1007 12.196 11.2511 12.0516C11.3512 11.9555 11.4702 11.8792 11.6013 11.8272C11.7323 11.7751 11.8728 11.7483 12.0147 11.7483C12.1566 11.7483 12.2971 11.7751 12.4282 11.8272C12.5592 11.8792 12.6782 11.9555 12.7784 12.0516ZM5.50106 11.3641C5.35065 11.5085 5.24834 11.6923 5.20705 11.8922C5.16575 12.0922 5.18732 12.2993 5.26903 12.4875C5.35074 12.6758 5.48893 12.8366 5.66615 12.9498C5.84336 13.0629 6.05166 13.1233 6.26473 13.1233C6.4778 13.1233 6.6861 13.0629 6.86332 12.9498C7.04053 12.8366 7.17872 12.6758 7.26043 12.4875C7.34214 12.2993 7.36371 12.0922 7.32241 11.8922C7.28112 11.6923 7.17881 11.5085 7.0284 11.3641C6.92827 11.2683 6.80937 11.1922 6.67849 11.1403C6.5476 11.0884 6.40731 11.0617 6.26563 11.0617C6.12395 11.0617 5.98365 11.0884 5.85277 11.1403C5.72189 11.1922 5.60298 11.2683 5.50286 11.3641H5.50106ZM6.30965 8.01258C6.46006 7.86821 6.56237 7.68446 6.60366 7.48451C6.64496 7.28457 6.62339 7.0774 6.54168 6.88917C6.45997 6.70094 6.32178 6.5401 6.14457 6.42694C5.96735 6.31378 5.75905 6.25339 5.54598 6.25339C5.33291 6.25339 5.12461 6.31378 4.9474 6.42694C4.77018 6.5401 4.63199 6.70094 4.55028 6.88917C4.46857 7.0774 4.447 7.28457 4.4883 7.48451C4.52959 7.68446 4.6319 7.86821 4.78231 8.01258C4.88259 8.10861 5.0017 8.18475 5.13281 8.23666C5.26392 8.28856 5.40446 8.31519 5.54635 8.31503C5.68825 8.31487 5.82872 8.28792 5.9597 8.23572C6.09069 8.18353 6.20961 8.10711 6.30965 8.01086V8.01258ZM10.6222 7.92664C10.4712 7.78278 10.2791 7.68491 10.0701 7.64541C9.86105 7.60591 9.64447 7.62654 9.44768 7.7047C9.2509 7.78286 9.08274 7.91504 8.96444 8.08455C8.84614 8.25406 8.783 8.4533 8.783 8.65711C8.783 8.86092 8.84614 9.06016 8.96444 9.22967C9.08274 9.39918 9.2509 9.53136 9.44768 9.60952C9.64447 9.68767 9.86105 9.70831 10.0701 9.66881C10.2791 9.6293 10.4712 9.53144 10.6222 9.38758C10.7227 9.29177 10.8024 9.17793 10.8568 9.05258C10.9112 8.92723 10.9393 8.79284 10.9393 8.65711C10.9393 8.52138 10.9112 8.38699 10.8568 8.26164C10.8024 8.13629 10.7227 8.02245 10.6222 7.92664ZM18.8438 9C18.8438 10.7677 18.2958 12.4956 17.269 13.9654C16.2423 15.4352 14.783 16.5807 13.0757 17.2572C11.3684 17.9336 9.48964 18.1106 7.67713 17.7658C5.86462 17.4209 4.19972 16.5697 2.89298 15.3198C1.58623 14.0698 0.696322 12.4773 0.335792 10.7436C-0.0247389 9.00992 0.160299 7.21288 0.867505 5.57977C1.57471 3.94665 2.77232 2.55081 4.30889 1.56874C5.84547 0.586675 7.65198 0.0625 9.5 0.0625C9.69063 0.0625 9.87345 0.134933 10.0082 0.263864C10.143 0.392795 10.2188 0.567664 10.2188 0.75C10.2188 1.66168 10.5974 2.53602 11.2713 3.18068C11.9453 3.82534 12.8594 4.1875 13.8125 4.1875C14.0031 4.1875 14.1859 4.25993 14.3207 4.38886C14.4555 4.5178 14.5313 4.69266 14.5313 4.875C14.5313 5.78668 14.9099 6.66102 15.5838 7.30568C16.2578 7.95034 17.1719 8.3125 18.125 8.3125C18.3156 8.3125 18.4984 8.38493 18.6332 8.51386C18.768 8.6428 18.8438 8.81766 18.8438 9ZM17.3784 9.63508C16.3019 9.47881 15.3073 8.99349 14.5431 8.25167C13.7789 7.50985 13.2862 6.55138 13.1387 5.51953C12.0599 5.37844 11.0579 4.90718 10.2824 4.1762C9.50681 3.44523 8.99944 2.4938 8.83606 1.46414C7.33425 1.58522 5.89991 2.11436 4.70204 2.98922C3.50417 3.86409 2.59267 5.04822 2.07495 6.4021C1.55723 7.75598 1.45486 9.2232 1.77989 10.6309C2.10492 12.0386 2.84382 13.328 3.90952 14.3474C4.97523 15.3668 6.32333 16.0736 7.795 16.3845C9.26666 16.6954 10.8006 16.5974 12.216 16.1022C13.6314 15.607 14.8694 14.7351 15.784 13.5894C16.6986 12.4436 17.2518 11.0716 17.3784 9.63508Z" fill="#2E2E2E"/>
</svg>
