<svg width="20" height="18" viewBox="0 0 20 18" fill="none" xmlns="http://www.w3.org/2000/svg">
<path d="M5.53125 8.3125C5.53125 8.51646 5.47077 8.71584 5.35745 8.88543C5.24414 9.05502 5.08308 9.1872 4.89464 9.26525C4.70621 9.3433 4.49886 9.36373 4.29881 9.32393C4.09877 9.28414 3.91502 9.18593 3.7708 9.0417C3.62657 8.89748 3.52836 8.71373 3.48856 8.51369C3.44877 8.31364 3.4692 8.10629 3.54725 7.91786C3.6253 7.72942 3.75748 7.56836 3.92707 7.45505C4.09666 7.34173 4.29604 7.28125 4.5 7.28125C4.7735 7.28125 5.03581 7.3899 5.2292 7.5833C5.4226 7.77669 5.53125 8.039 5.53125 8.3125ZM19.625 8.3125V15.875C19.625 16.2397 19.4801 16.5894 19.2223 16.8473C18.9644 17.1051 18.6147 17.25 18.25 17.25H8.625C8.26033 17.25 7.91059 17.1051 7.65273 16.8473C7.39487 16.5894 7.25 16.2397 7.25 15.875V14.0145C6.50836 15.2193 5.54672 15.875 4.5 15.875C3.30805 15.875 2.22609 15.0251 1.45437 13.4816C0.758281 12.0937 0.375 10.2538 0.375 8.3125C0.375 6.37117 0.758281 4.53555 1.45437 3.14336C2.22609 1.59992 3.30805 0.75 4.5 0.75H15.5C16.692 0.75 17.7739 1.59992 18.5456 3.14336C19.2417 4.53555 19.625 6.37117 19.625 8.3125ZM7.25 8.3125C7.25 4.66617 5.80109 2.125 4.5 2.125C3.19891 2.125 1.75 4.66617 1.75 8.3125C1.75 11.9588 3.19891 14.5 4.5 14.5C5.80109 14.5 7.25 11.9588 7.25 8.3125ZM18.25 15.875V9H16.875C16.6927 9 16.5178 8.92757 16.3889 8.79864C16.2599 8.6697 16.1875 8.49484 16.1875 8.3125C16.1875 8.13016 16.2599 7.9553 16.3889 7.82636C16.5178 7.69743 16.6927 7.625 16.875 7.625H18.232C18.0644 4.35078 16.7169 2.125 15.5 2.125H6.91656C7.15797 2.4438 7.3686 2.78478 7.54563 3.14336C8.15922 4.37055 8.52875 5.94148 8.60867 7.625H10C10.1823 7.625 10.3572 7.69743 10.4861 7.82636C10.6151 7.9553 10.6875 8.13016 10.6875 8.3125C10.6875 8.49484 10.6151 8.6697 10.4861 8.79864C10.3572 8.92757 10.1823 9 10 9H8.625V15.875H18.25ZM14.125 7.625H12.75C12.5677 7.625 12.3928 7.69743 12.2639 7.82636C12.1349 7.9553 12.0625 8.13016 12.0625 8.3125C12.0625 8.49484 12.1349 8.6697 12.2639 8.79864C12.3928 8.92757 12.5677 9 12.75 9H14.125C14.3073 9 14.4822 8.92757 14.6111 8.79864C14.7401 8.6697 14.8125 8.49484 14.8125 8.3125C14.8125 8.13016 14.7401 7.9553 14.6111 7.82636C14.4822 7.69743 14.3073 7.625 14.125 7.625Z" fill="#2E2E2E"/>
</svg>
