<svg width="22" height="16" viewBox="0 0 22 16" fill="none" xmlns="http://www.w3.org/2000/svg">
<path d="M19.25 5.31875V5.25C19.2486 3.97406 18.7412 2.75078 17.8389 1.84856C16.9367 0.946333 15.7134 0.438865 14.4375 0.4375H13.75C13.3853 0.4375 13.0356 0.582366 12.7777 0.840228C12.5199 1.09809 12.375 1.44783 12.375 1.8125V12.125H11V3.1875C11 3.00516 10.9276 2.8303 10.7986 2.70136C10.6697 2.57243 10.4948 2.5 10.3125 2.5H1.375C1.01033 2.5 0.660591 2.64487 0.402728 2.90273C0.144866 3.16059 0 3.51033 0 3.875L0 12.8125C0.000627893 13.3708 0.171183 13.9157 0.488991 14.3748C0.806799 14.8338 1.2568 15.1852 1.77917 15.3823C2.30155 15.5794 2.87154 15.6129 3.41337 15.4782C3.9552 15.3435 4.44321 15.0471 4.8125 14.6284C5.1426 15.0034 5.56861 15.2813 6.04479 15.4325C6.52097 15.5836 7.02932 15.6022 7.51525 15.4862C8.00118 15.3702 8.44633 15.124 8.80289 14.774C9.15945 14.4241 9.41395 13.9837 9.53906 13.5H16.5859C16.7522 14.1493 17.1499 14.7156 17.7042 15.0924C18.2586 15.4691 18.9315 15.6304 19.5964 15.546C20.2614 15.4616 20.8726 15.1372 21.3152 14.6338C21.7578 14.1305 22.0013 13.4828 22 12.8125V8.6875C21.999 7.89535 21.725 7.12776 21.224 6.51411C20.7231 5.90046 20.0259 5.47829 19.25 5.31875ZM13.75 1.8125H14.4375C15.3492 1.8125 16.2235 2.17466 16.8682 2.81932C17.5128 3.46398 17.875 4.33832 17.875 5.25V5.9375C17.875 6.11984 17.9474 6.2947 18.0764 6.42364C18.2053 6.55257 18.3802 6.625 18.5625 6.625C19.1095 6.625 19.6341 6.8423 20.0209 7.22909C20.4077 7.61589 20.625 8.14049 20.625 8.6875V10.4329C20.2076 10.1897 19.7331 10.0619 19.25 10.0625C18.6403 10.0631 18.0481 10.2659 17.566 10.6391C17.0839 11.0123 16.7392 11.5349 16.5859 12.125H13.75V1.8125ZM9.625 3.875V12.125H9.53906C9.41395 11.6413 9.15945 11.2009 8.80289 10.851C8.44633 10.501 8.00118 10.2548 7.51525 10.1388C7.02932 10.0228 6.52097 10.0414 6.04479 10.1925C5.56861 10.3437 5.1426 10.6216 4.8125 10.9966C4.39363 10.5189 3.82181 10.2014 3.1948 10.0986C2.56779 9.99578 1.92453 10.1139 1.375 10.4329V3.875H9.625ZM2.75 14.1875C2.47805 14.1875 2.21221 14.1069 1.98609 13.9558C1.75997 13.8047 1.58374 13.5899 1.47967 13.3387C1.3756 13.0874 1.34837 12.811 1.40142 12.5443C1.45448 12.2775 1.58543 12.0325 1.77773 11.8402C1.97003 11.6479 2.21503 11.517 2.48175 11.4639C2.74848 11.4109 3.02494 11.4381 3.27619 11.5422C3.52744 11.6462 3.74218 11.8225 3.89327 12.0486C4.04436 12.2747 4.125 12.5406 4.125 12.8125C4.125 13.1772 3.98013 13.5269 3.72227 13.7848C3.46441 14.0426 3.11467 14.1875 2.75 14.1875ZM6.875 14.1875C6.60305 14.1875 6.33721 14.1069 6.11109 13.9558C5.88497 13.8047 5.70874 13.5899 5.60467 13.3387C5.5006 13.0874 5.47337 12.811 5.52642 12.5443C5.57948 12.2775 5.71043 12.0325 5.90273 11.8402C6.09503 11.6479 6.34003 11.517 6.60675 11.4639C6.87348 11.4109 7.14994 11.4381 7.40119 11.5422C7.65244 11.6462 7.86718 11.8225 8.01827 12.0486C8.16936 12.2747 8.25 12.5406 8.25 12.8125C8.25 13.1772 8.10513 13.5269 7.84727 13.7848C7.58941 14.0426 7.23967 14.1875 6.875 14.1875ZM19.25 14.1875C18.9781 14.1875 18.7122 14.1069 18.4861 13.9558C18.26 13.8047 18.0837 13.5899 17.9797 13.3387C17.8756 13.0874 17.8484 12.811 17.9014 12.5443C17.9545 12.2775 18.0854 12.0325 18.2777 11.8402C18.47 11.6479 18.715 11.517 18.9818 11.4639C19.2485 11.4109 19.5249 11.4381 19.7762 11.5422C20.0274 11.6462 20.2422 11.8225 20.3933 12.0486C20.5444 12.2747 20.625 12.5406 20.625 12.8125C20.625 13.1772 20.4801 13.5269 20.2223 13.7848C19.9644 14.0426 19.6147 14.1875 19.25 14.1875Z" fill="#2E2E2E"/>
</svg>
