<svg width="20" height="15" viewBox="0 0 20 15" fill="none" xmlns="http://www.w3.org/2000/svg">
<path d="M11.0311 13.5313C11.0311 13.7352 10.9706 13.9346 10.8573 14.1042C10.744 14.2738 10.5829 14.406 10.3945 14.484C10.206 14.5621 9.99869 14.5825 9.79865 14.5427C9.59861 14.5029 9.41486 14.4047 9.27063 14.2605C9.12641 14.1162 9.02819 13.9325 8.9884 13.7325C8.94861 13.5324 8.96903 13.3251 9.04709 13.1366C9.12514 12.9482 9.25732 12.7871 9.42691 12.6738C9.59649 12.5605 9.79587 12.5 9.99984 12.5C10.2733 12.5 10.5356 12.6087 10.729 12.8021C10.9224 12.9955 11.0311 13.2578 11.0311 13.5313ZM19.3739 3.47658C16.7309 1.3087 13.4182 0.123901 9.99984 0.123901C6.58148 0.123901 3.26878 1.3087 0.625775 3.47658C0.555974 3.53391 0.498149 3.60443 0.455601 3.6841C0.413053 3.76378 0.386615 3.85106 0.377797 3.94095C0.368979 4.03085 0.377954 4.1216 0.404208 4.20803C0.430463 4.29445 0.473484 4.37486 0.530814 4.44466C0.588144 4.51446 0.658661 4.57229 0.738339 4.61484C0.818017 4.65739 0.905295 4.68382 0.99519 4.69264C1.17674 4.71045 1.35793 4.65541 1.4989 4.53962C3.89588 2.57399 6.89996 1.49974 9.99984 1.49974C13.0997 1.49974 16.1038 2.57399 18.5008 4.53962C18.6417 4.65541 18.8229 4.71045 19.0045 4.69264C19.186 4.67483 19.3531 4.58563 19.4689 4.44466C19.5846 4.30369 19.6397 4.1225 19.6219 3.94095C19.6041 3.7594 19.5149 3.59236 19.3739 3.47658ZM16.617 6.55056C14.7344 5.06008 12.4036 4.24911 10.0024 4.24911C7.60122 4.24911 5.27041 5.06008 3.38781 6.55056C3.2449 6.66384 3.15285 6.82924 3.13189 7.01039C3.11094 7.19154 3.16281 7.37359 3.27609 7.5165C3.38936 7.6594 3.55477 7.75146 3.73592 7.77241C3.91707 7.79336 4.09912 7.74149 4.24202 7.62822C5.88159 6.33041 7.91137 5.6243 10.0024 5.6243C12.0935 5.6243 14.1232 6.33041 15.7628 7.62822C15.8336 7.68432 15.9147 7.72593 16.0015 7.75067C16.0884 7.77542 16.1792 7.78282 16.2689 7.77244C16.3586 7.76207 16.4454 7.73412 16.5243 7.69021C16.6032 7.64629 16.6727 7.58727 16.7287 7.5165C16.7848 7.44574 16.8265 7.36463 16.8512 7.27779C16.8759 7.19095 16.8833 7.10009 16.873 7.01039C16.8626 6.92069 16.8347 6.83392 16.7907 6.75502C16.7468 6.67612 16.6878 6.60664 16.617 6.55056ZM13.8447 9.62369C12.728 8.81209 11.3829 8.37495 10.0024 8.37495C8.62192 8.37495 7.27688 8.81209 6.16015 9.62369C6.01268 9.73104 5.91391 9.89257 5.88554 10.0728C5.85718 10.2529 5.90155 10.437 6.0089 10.5845C6.11625 10.7319 6.27778 10.8307 6.45796 10.8591C6.63815 10.8874 6.82222 10.8431 6.96968 10.7357C7.85098 10.0948 8.91269 9.74953 10.0024 9.74953C11.0921 9.74953 12.1538 10.0948 13.0352 10.7357C13.1082 10.7889 13.1909 10.8271 13.2787 10.8483C13.3665 10.8695 13.4576 10.8731 13.5469 10.8591C13.6361 10.845 13.7217 10.8136 13.7987 10.7664C13.8758 10.7193 13.9428 10.6575 13.9959 10.5845C14.0491 10.5115 14.0873 10.4287 14.1085 10.3409C14.1297 10.2531 14.1333 10.162 14.1193 10.0728C14.1052 9.98354 14.0738 9.89796 14.0266 9.82091C13.9795 9.74386 13.9177 9.67684 13.8447 9.62369Z" fill="#2E2E2E"/>
</svg>
